<mxfile host="app.diagrams.net" modified="2023-09-07T22:43:49.466Z" agent="Mozilla/5.0 (X11; Linux x86_64) AppleWebKit/537.36 (KHTML, like Gecko) Chrome/116.0.0.0 Safari/537.36" etag="IN8VJxr6wSCxXNRfscjn" version="21.6.9" type="device">
  <diagram name="Page-1" id="rb-kT-u-iBlUm-YNYMj0">
    <mxGraphModel dx="1135" dy="645" grid="1" gridSize="10" guides="1" tooltips="1" connect="1" arrows="1" fold="1" page="1" pageScale="1" pageWidth="850" pageHeight="1100" math="0" shadow="0">
      <root>
        <mxCell id="0" />
        <mxCell id="1" parent="0" />
        <mxCell id="9eb1sHR4hk60-oKOcMgC-226" value="" style="rounded=1;whiteSpace=wrap;html=1;arcSize=5;" vertex="1" parent="1">
          <mxGeometry x="300" y="870" width="250" height="250" as="geometry" />
        </mxCell>
        <mxCell id="9eb1sHR4hk60-oKOcMgC-227" value="" style="rounded=1;whiteSpace=wrap;html=1;arcSize=5;" vertex="1" parent="1">
          <mxGeometry x="580" y="870" width="250" height="250" as="geometry" />
        </mxCell>
        <mxCell id="9eb1sHR4hk60-oKOcMgC-223" value="" style="rounded=1;whiteSpace=wrap;html=1;arcSize=5;" vertex="1" parent="1">
          <mxGeometry x="20" y="870" width="250" height="250" as="geometry" />
        </mxCell>
        <mxCell id="9eb1sHR4hk60-oKOcMgC-101" value="" style="rounded=1;whiteSpace=wrap;html=1;fillColor=#000099;" vertex="1" parent="1">
          <mxGeometry x="590" y="880" width="20" height="20" as="geometry" />
        </mxCell>
        <mxCell id="9eb1sHR4hk60-oKOcMgC-104" value="" style="rounded=1;whiteSpace=wrap;html=1;fillColor=#000099;" vertex="1" parent="1">
          <mxGeometry x="620" y="880" width="20" height="20" as="geometry" />
        </mxCell>
        <mxCell id="9eb1sHR4hk60-oKOcMgC-105" value="" style="rounded=1;whiteSpace=wrap;html=1;fillColor=#EEEEEE;strokeColor=#666666;" vertex="1" parent="1">
          <mxGeometry x="590" y="910" width="20" height="20" as="geometry" />
        </mxCell>
        <mxCell id="9eb1sHR4hk60-oKOcMgC-106" value="" style="rounded=1;whiteSpace=wrap;html=1;fillColor=#000099;" vertex="1" parent="1">
          <mxGeometry x="620" y="910" width="20" height="20" as="geometry" />
        </mxCell>
        <mxCell id="9eb1sHR4hk60-oKOcMgC-107" value="" style="rounded=1;whiteSpace=wrap;html=1;fillColor=#000099;" vertex="1" parent="1">
          <mxGeometry x="650" y="880" width="20" height="20" as="geometry" />
        </mxCell>
        <mxCell id="9eb1sHR4hk60-oKOcMgC-108" value="" style="rounded=1;whiteSpace=wrap;html=1;fillColor=#EEEEEE;strokeColor=#666666;" vertex="1" parent="1">
          <mxGeometry x="680" y="880" width="20" height="20" as="geometry" />
        </mxCell>
        <mxCell id="9eb1sHR4hk60-oKOcMgC-109" value="" style="rounded=1;whiteSpace=wrap;html=1;fillColor=#EEEEEE;strokeColor=#666666;" vertex="1" parent="1">
          <mxGeometry x="650" y="910" width="20" height="20" as="geometry" />
        </mxCell>
        <mxCell id="9eb1sHR4hk60-oKOcMgC-110" value="" style="rounded=1;whiteSpace=wrap;html=1;fillColor=#000099;" vertex="1" parent="1">
          <mxGeometry x="680" y="910" width="20" height="20" as="geometry" />
        </mxCell>
        <mxCell id="9eb1sHR4hk60-oKOcMgC-111" value="" style="rounded=1;whiteSpace=wrap;html=1;fillColor=#000099;" vertex="1" parent="1">
          <mxGeometry x="590" y="940" width="20" height="20" as="geometry" />
        </mxCell>
        <mxCell id="9eb1sHR4hk60-oKOcMgC-112" value="" style="rounded=1;whiteSpace=wrap;html=1;fillColor=#EEEEEE;strokeColor=#666666;" vertex="1" parent="1">
          <mxGeometry x="620" y="940" width="20" height="20" as="geometry" />
        </mxCell>
        <mxCell id="9eb1sHR4hk60-oKOcMgC-113" value="" style="rounded=1;whiteSpace=wrap;html=1;fillColor=#EEEEEE;strokeColor=#666666;" vertex="1" parent="1">
          <mxGeometry x="590" y="970" width="20" height="20" as="geometry" />
        </mxCell>
        <mxCell id="9eb1sHR4hk60-oKOcMgC-114" value="" style="rounded=1;whiteSpace=wrap;html=1;fillColor=#000099;" vertex="1" parent="1">
          <mxGeometry x="620" y="970" width="20" height="20" as="geometry" />
        </mxCell>
        <mxCell id="9eb1sHR4hk60-oKOcMgC-115" value="" style="rounded=1;whiteSpace=wrap;html=1;fillColor=#EEEEEE;strokeColor=#666666;" vertex="1" parent="1">
          <mxGeometry x="650" y="940" width="20" height="20" as="geometry" />
        </mxCell>
        <mxCell id="9eb1sHR4hk60-oKOcMgC-116" value="" style="rounded=1;whiteSpace=wrap;html=1;fillColor=#000099;" vertex="1" parent="1">
          <mxGeometry x="680" y="940" width="20" height="20" as="geometry" />
        </mxCell>
        <mxCell id="9eb1sHR4hk60-oKOcMgC-117" value="" style="rounded=1;whiteSpace=wrap;html=1;fillColor=#000099;" vertex="1" parent="1">
          <mxGeometry x="650" y="970" width="20" height="20" as="geometry" />
        </mxCell>
        <mxCell id="9eb1sHR4hk60-oKOcMgC-118" value="" style="rounded=1;whiteSpace=wrap;html=1;fillColor=#000099;" vertex="1" parent="1">
          <mxGeometry x="680" y="970" width="20" height="20" as="geometry" />
        </mxCell>
        <mxCell id="9eb1sHR4hk60-oKOcMgC-119" value="" style="rounded=1;whiteSpace=wrap;html=1;fillColor=#000099;" vertex="1" parent="1">
          <mxGeometry x="710" y="880" width="20" height="20" as="geometry" />
        </mxCell>
        <mxCell id="9eb1sHR4hk60-oKOcMgC-120" value="" style="rounded=1;whiteSpace=wrap;html=1;fillColor=#000099;" vertex="1" parent="1">
          <mxGeometry x="740" y="880" width="20" height="20" as="geometry" />
        </mxCell>
        <mxCell id="9eb1sHR4hk60-oKOcMgC-121" value="" style="rounded=1;whiteSpace=wrap;html=1;fillColor=#EEEEEE;strokeColor=#666666;" vertex="1" parent="1">
          <mxGeometry x="710" y="910" width="20" height="20" as="geometry" />
        </mxCell>
        <mxCell id="9eb1sHR4hk60-oKOcMgC-122" value="" style="rounded=1;whiteSpace=wrap;html=1;fillColor=#EEEEEE;strokeColor=#666666;" vertex="1" parent="1">
          <mxGeometry x="740" y="910" width="20" height="20" as="geometry" />
        </mxCell>
        <mxCell id="9eb1sHR4hk60-oKOcMgC-123" value="" style="rounded=1;whiteSpace=wrap;html=1;fillColor=#000099;" vertex="1" parent="1">
          <mxGeometry x="770" y="880" width="20" height="20" as="geometry" />
        </mxCell>
        <mxCell id="9eb1sHR4hk60-oKOcMgC-124" value="" style="rounded=1;whiteSpace=wrap;html=1;fillColor=#EEEEEE;strokeColor=#666666;" vertex="1" parent="1">
          <mxGeometry x="800" y="880" width="20" height="20" as="geometry" />
        </mxCell>
        <mxCell id="9eb1sHR4hk60-oKOcMgC-125" value="" style="rounded=1;whiteSpace=wrap;html=1;fillColor=#000099;" vertex="1" parent="1">
          <mxGeometry x="770" y="910" width="20" height="20" as="geometry" />
        </mxCell>
        <mxCell id="9eb1sHR4hk60-oKOcMgC-126" value="" style="rounded=1;whiteSpace=wrap;html=1;fillColor=#000099;" vertex="1" parent="1">
          <mxGeometry x="800" y="910" width="20" height="20" as="geometry" />
        </mxCell>
        <mxCell id="9eb1sHR4hk60-oKOcMgC-127" value="" style="rounded=1;whiteSpace=wrap;html=1;fillColor=#000099;" vertex="1" parent="1">
          <mxGeometry x="710" y="940" width="20" height="20" as="geometry" />
        </mxCell>
        <mxCell id="9eb1sHR4hk60-oKOcMgC-128" value="" style="rounded=1;whiteSpace=wrap;html=1;fillColor=#EEEEEE;strokeColor=#666666;" vertex="1" parent="1">
          <mxGeometry x="740" y="940" width="20" height="20" as="geometry" />
        </mxCell>
        <mxCell id="9eb1sHR4hk60-oKOcMgC-129" value="" style="rounded=1;whiteSpace=wrap;html=1;fillColor=#EEEEEE;strokeColor=#666666;" vertex="1" parent="1">
          <mxGeometry x="710" y="970" width="20" height="20" as="geometry" />
        </mxCell>
        <mxCell id="9eb1sHR4hk60-oKOcMgC-130" value="" style="rounded=1;whiteSpace=wrap;html=1;fillColor=#000099;" vertex="1" parent="1">
          <mxGeometry x="740" y="970" width="20" height="20" as="geometry" />
        </mxCell>
        <mxCell id="9eb1sHR4hk60-oKOcMgC-131" value="" style="rounded=1;whiteSpace=wrap;html=1;fillColor=#000099;" vertex="1" parent="1">
          <mxGeometry x="770" y="940" width="20" height="20" as="geometry" />
        </mxCell>
        <mxCell id="9eb1sHR4hk60-oKOcMgC-132" value="" style="rounded=1;whiteSpace=wrap;html=1;fillColor=#EEEEEE;strokeColor=#666666;" vertex="1" parent="1">
          <mxGeometry x="800" y="940" width="20" height="20" as="geometry" />
        </mxCell>
        <mxCell id="9eb1sHR4hk60-oKOcMgC-133" value="" style="rounded=1;whiteSpace=wrap;html=1;fillColor=#EEEEEE;strokeColor=#666666;" vertex="1" parent="1">
          <mxGeometry x="770" y="970" width="20" height="20" as="geometry" />
        </mxCell>
        <mxCell id="9eb1sHR4hk60-oKOcMgC-134" value="" style="rounded=1;whiteSpace=wrap;html=1;fillColor=#000099;" vertex="1" parent="1">
          <mxGeometry x="800" y="970" width="20" height="20" as="geometry" />
        </mxCell>
        <mxCell id="9eb1sHR4hk60-oKOcMgC-135" value="" style="rounded=1;whiteSpace=wrap;html=1;fillColor=#EEEEEE;strokeColor=#666666;" vertex="1" parent="1">
          <mxGeometry x="590" y="1000" width="20" height="20" as="geometry" />
        </mxCell>
        <mxCell id="9eb1sHR4hk60-oKOcMgC-136" value="" style="rounded=1;whiteSpace=wrap;html=1;fillColor=#EEEEEE;strokeColor=#666666;" vertex="1" parent="1">
          <mxGeometry x="620" y="1000" width="20" height="20" as="geometry" />
        </mxCell>
        <mxCell id="9eb1sHR4hk60-oKOcMgC-137" value="" style="rounded=1;whiteSpace=wrap;html=1;fillColor=#000099;" vertex="1" parent="1">
          <mxGeometry x="590" y="1030" width="20" height="20" as="geometry" />
        </mxCell>
        <mxCell id="9eb1sHR4hk60-oKOcMgC-138" value="" style="rounded=1;whiteSpace=wrap;html=1;fillColor=#000099;" vertex="1" parent="1">
          <mxGeometry x="620" y="1030" width="20" height="20" as="geometry" />
        </mxCell>
        <mxCell id="9eb1sHR4hk60-oKOcMgC-139" value="" style="rounded=1;whiteSpace=wrap;html=1;fillColor=#000099;" vertex="1" parent="1">
          <mxGeometry x="650" y="1000" width="20" height="20" as="geometry" />
        </mxCell>
        <mxCell id="9eb1sHR4hk60-oKOcMgC-140" value="" style="rounded=1;whiteSpace=wrap;html=1;fillColor=#EEEEEE;strokeColor=#666666;" vertex="1" parent="1">
          <mxGeometry x="680" y="1000" width="20" height="20" as="geometry" />
        </mxCell>
        <mxCell id="9eb1sHR4hk60-oKOcMgC-141" value="" style="rounded=1;whiteSpace=wrap;html=1;fillColor=#EEEEEE;strokeColor=#666666;" vertex="1" parent="1">
          <mxGeometry x="650" y="1030" width="20" height="20" as="geometry" />
        </mxCell>
        <mxCell id="9eb1sHR4hk60-oKOcMgC-142" value="" style="rounded=1;whiteSpace=wrap;html=1;fillColor=#000099;" vertex="1" parent="1">
          <mxGeometry x="680" y="1030" width="20" height="20" as="geometry" />
        </mxCell>
        <mxCell id="9eb1sHR4hk60-oKOcMgC-143" value="" style="rounded=1;whiteSpace=wrap;html=1;fillColor=#000099;" vertex="1" parent="1">
          <mxGeometry x="590" y="1060" width="20" height="20" as="geometry" />
        </mxCell>
        <mxCell id="9eb1sHR4hk60-oKOcMgC-144" value="" style="rounded=1;whiteSpace=wrap;html=1;fillColor=#000099;" vertex="1" parent="1">
          <mxGeometry x="620" y="1060" width="20" height="20" as="geometry" />
        </mxCell>
        <mxCell id="9eb1sHR4hk60-oKOcMgC-145" value="" style="rounded=1;whiteSpace=wrap;html=1;fillColor=#EEEEEE;strokeColor=#666666;" vertex="1" parent="1">
          <mxGeometry x="590" y="1090" width="20" height="20" as="geometry" />
        </mxCell>
        <mxCell id="9eb1sHR4hk60-oKOcMgC-146" value="" style="rounded=1;whiteSpace=wrap;html=1;fillColor=#000099;" vertex="1" parent="1">
          <mxGeometry x="620" y="1090" width="20" height="20" as="geometry" />
        </mxCell>
        <mxCell id="9eb1sHR4hk60-oKOcMgC-147" value="" style="rounded=1;whiteSpace=wrap;html=1;fillColor=#EEEEEE;strokeColor=#666666;" vertex="1" parent="1">
          <mxGeometry x="650" y="1060" width="20" height="20" as="geometry" />
        </mxCell>
        <mxCell id="9eb1sHR4hk60-oKOcMgC-148" value="" style="rounded=1;whiteSpace=wrap;html=1;fillColor=#000099;" vertex="1" parent="1">
          <mxGeometry x="680" y="1060" width="20" height="20" as="geometry" />
        </mxCell>
        <mxCell id="9eb1sHR4hk60-oKOcMgC-149" value="" style="rounded=1;whiteSpace=wrap;html=1;fillColor=#EEEEEE;strokeColor=#666666;" vertex="1" parent="1">
          <mxGeometry x="650" y="1090" width="20" height="20" as="geometry" />
        </mxCell>
        <mxCell id="9eb1sHR4hk60-oKOcMgC-150" value="" style="rounded=1;whiteSpace=wrap;html=1;fillColor=#EEEEEE;strokeColor=#666666;" vertex="1" parent="1">
          <mxGeometry x="680" y="1090" width="20" height="20" as="geometry" />
        </mxCell>
        <mxCell id="9eb1sHR4hk60-oKOcMgC-151" value="" style="rounded=1;whiteSpace=wrap;html=1;fillColor=#EEEEEE;strokeColor=#666666;" vertex="1" parent="1">
          <mxGeometry x="710" y="1000" width="20" height="20" as="geometry" />
        </mxCell>
        <mxCell id="9eb1sHR4hk60-oKOcMgC-152" value="" style="rounded=1;whiteSpace=wrap;html=1;fillColor=#000099;" vertex="1" parent="1">
          <mxGeometry x="740" y="1000" width="20" height="20" as="geometry" />
        </mxCell>
        <mxCell id="9eb1sHR4hk60-oKOcMgC-153" value="" style="rounded=1;whiteSpace=wrap;html=1;fillColor=#000099;" vertex="1" parent="1">
          <mxGeometry x="710" y="1030" width="20" height="20" as="geometry" />
        </mxCell>
        <mxCell id="9eb1sHR4hk60-oKOcMgC-154" value="" style="rounded=1;whiteSpace=wrap;html=1;fillColor=#EEEEEE;strokeColor=#666666;" vertex="1" parent="1">
          <mxGeometry x="740" y="1030" width="20" height="20" as="geometry" />
        </mxCell>
        <mxCell id="9eb1sHR4hk60-oKOcMgC-155" value="" style="rounded=1;whiteSpace=wrap;html=1;fillColor=#000099;" vertex="1" parent="1">
          <mxGeometry x="770" y="1000" width="20" height="20" as="geometry" />
        </mxCell>
        <mxCell id="9eb1sHR4hk60-oKOcMgC-156" value="" style="rounded=1;whiteSpace=wrap;html=1;fillColor=#EEEEEE;strokeColor=#666666;" vertex="1" parent="1">
          <mxGeometry x="800" y="1000" width="20" height="20" as="geometry" />
        </mxCell>
        <mxCell id="9eb1sHR4hk60-oKOcMgC-157" value="" style="rounded=1;whiteSpace=wrap;html=1;fillColor=#000099;" vertex="1" parent="1">
          <mxGeometry x="770" y="1030" width="20" height="20" as="geometry" />
        </mxCell>
        <mxCell id="9eb1sHR4hk60-oKOcMgC-158" value="" style="rounded=1;whiteSpace=wrap;html=1;fillColor=#EEEEEE;strokeColor=#666666;" vertex="1" parent="1">
          <mxGeometry x="800" y="1030" width="20" height="20" as="geometry" />
        </mxCell>
        <mxCell id="9eb1sHR4hk60-oKOcMgC-159" value="" style="rounded=1;whiteSpace=wrap;html=1;fillColor=#EEEEEE;strokeColor=#666666;" vertex="1" parent="1">
          <mxGeometry x="710" y="1060" width="20" height="20" as="geometry" />
        </mxCell>
        <mxCell id="9eb1sHR4hk60-oKOcMgC-160" value="" style="rounded=1;whiteSpace=wrap;html=1;fillColor=#000099;" vertex="1" parent="1">
          <mxGeometry x="740" y="1060" width="20" height="20" as="geometry" />
        </mxCell>
        <mxCell id="9eb1sHR4hk60-oKOcMgC-161" value="" style="rounded=1;whiteSpace=wrap;html=1;fillColor=#000099;" vertex="1" parent="1">
          <mxGeometry x="710" y="1090" width="20" height="20" as="geometry" />
        </mxCell>
        <mxCell id="9eb1sHR4hk60-oKOcMgC-162" value="" style="rounded=1;whiteSpace=wrap;html=1;fillColor=#EEEEEE;strokeColor=#666666;" vertex="1" parent="1">
          <mxGeometry x="740" y="1090" width="20" height="20" as="geometry" />
        </mxCell>
        <mxCell id="9eb1sHR4hk60-oKOcMgC-163" value="" style="rounded=1;whiteSpace=wrap;html=1;fillColor=#000099;" vertex="1" parent="1">
          <mxGeometry x="770" y="1060" width="20" height="20" as="geometry" />
        </mxCell>
        <mxCell id="9eb1sHR4hk60-oKOcMgC-164" value="" style="rounded=1;whiteSpace=wrap;html=1;fillColor=#000099;" vertex="1" parent="1">
          <mxGeometry x="800" y="1060" width="20" height="20" as="geometry" />
        </mxCell>
        <mxCell id="9eb1sHR4hk60-oKOcMgC-165" value="" style="rounded=1;whiteSpace=wrap;html=1;fillColor=#000099;" vertex="1" parent="1">
          <mxGeometry x="770" y="1090" width="20" height="20" as="geometry" />
        </mxCell>
        <mxCell id="9eb1sHR4hk60-oKOcMgC-166" value="" style="rounded=1;whiteSpace=wrap;html=1;fillColor=#EEEEEE;strokeColor=#666666;" vertex="1" parent="1">
          <mxGeometry x="800" y="1090" width="20" height="20" as="geometry" />
        </mxCell>
        <mxCell id="9eb1sHR4hk60-oKOcMgC-183" value="" style="rounded=1;whiteSpace=wrap;html=1;fillColor=#000099;" vertex="1" parent="1">
          <mxGeometry x="150" y="880" width="110" height="110" as="geometry" />
        </mxCell>
        <mxCell id="9eb1sHR4hk60-oKOcMgC-184" value="" style="rounded=1;whiteSpace=wrap;html=1;fillColor=#000099;" vertex="1" parent="1">
          <mxGeometry x="310" y="880" width="30" height="30" as="geometry" />
        </mxCell>
        <mxCell id="9eb1sHR4hk60-oKOcMgC-185" value="" style="rounded=1;whiteSpace=wrap;html=1;fillColor=#000099;" vertex="1" parent="1">
          <mxGeometry x="350" y="880" width="30" height="30" as="geometry" />
        </mxCell>
        <mxCell id="9eb1sHR4hk60-oKOcMgC-186" value="" style="rounded=1;whiteSpace=wrap;html=1;fillColor=#000099;" vertex="1" parent="1">
          <mxGeometry x="390" y="880" width="30" height="30" as="geometry" />
        </mxCell>
        <mxCell id="9eb1sHR4hk60-oKOcMgC-187" value="" style="rounded=1;whiteSpace=wrap;html=1;fillColor=#000099;" vertex="1" parent="1">
          <mxGeometry x="310" y="920" width="30" height="30" as="geometry" />
        </mxCell>
        <mxCell id="9eb1sHR4hk60-oKOcMgC-188" value="" style="rounded=1;whiteSpace=wrap;html=1;fillColor=#000099;" vertex="1" parent="1">
          <mxGeometry x="350" y="920" width="30" height="30" as="geometry" />
        </mxCell>
        <mxCell id="9eb1sHR4hk60-oKOcMgC-189" value="" style="rounded=1;whiteSpace=wrap;html=1;fillColor=#000099;" vertex="1" parent="1">
          <mxGeometry x="390" y="920" width="30" height="30" as="geometry" />
        </mxCell>
        <mxCell id="9eb1sHR4hk60-oKOcMgC-190" value="" style="rounded=1;whiteSpace=wrap;html=1;fillColor=#000099;" vertex="1" parent="1">
          <mxGeometry x="430" y="880" width="30" height="30" as="geometry" />
        </mxCell>
        <mxCell id="9eb1sHR4hk60-oKOcMgC-191" value="" style="rounded=1;whiteSpace=wrap;html=1;fillColor=#000099;" vertex="1" parent="1">
          <mxGeometry x="470" y="880" width="30" height="30" as="geometry" />
        </mxCell>
        <mxCell id="9eb1sHR4hk60-oKOcMgC-192" value="" style="rounded=1;whiteSpace=wrap;html=1;fillColor=#000099;" vertex="1" parent="1">
          <mxGeometry x="510" y="880" width="30" height="30" as="geometry" />
        </mxCell>
        <mxCell id="9eb1sHR4hk60-oKOcMgC-193" value="" style="rounded=1;whiteSpace=wrap;html=1;fillColor=#000099;" vertex="1" parent="1">
          <mxGeometry x="430" y="920" width="30" height="30" as="geometry" />
        </mxCell>
        <mxCell id="9eb1sHR4hk60-oKOcMgC-194" value="" style="rounded=1;whiteSpace=wrap;html=1;fillColor=#000099;" vertex="1" parent="1">
          <mxGeometry x="470" y="920" width="30" height="30" as="geometry" />
        </mxCell>
        <mxCell id="9eb1sHR4hk60-oKOcMgC-195" value="" style="rounded=1;whiteSpace=wrap;html=1;fillColor=#000099;" vertex="1" parent="1">
          <mxGeometry x="510" y="920" width="30" height="30" as="geometry" />
        </mxCell>
        <mxCell id="9eb1sHR4hk60-oKOcMgC-196" value="" style="rounded=1;whiteSpace=wrap;html=1;fillColor=#000099;" vertex="1" parent="1">
          <mxGeometry x="310" y="960" width="30" height="30" as="geometry" />
        </mxCell>
        <mxCell id="9eb1sHR4hk60-oKOcMgC-197" value="" style="rounded=1;whiteSpace=wrap;html=1;fillColor=#000099;" vertex="1" parent="1">
          <mxGeometry x="350" y="960" width="30" height="30" as="geometry" />
        </mxCell>
        <mxCell id="9eb1sHR4hk60-oKOcMgC-198" value="" style="rounded=1;whiteSpace=wrap;html=1;fillColor=#000099;" vertex="1" parent="1">
          <mxGeometry x="390" y="960" width="30" height="30" as="geometry" />
        </mxCell>
        <mxCell id="9eb1sHR4hk60-oKOcMgC-199" value="" style="rounded=1;whiteSpace=wrap;html=1;fillColor=#000099;" vertex="1" parent="1">
          <mxGeometry x="310" y="1000" width="30" height="30" as="geometry" />
        </mxCell>
        <mxCell id="9eb1sHR4hk60-oKOcMgC-200" value="" style="rounded=1;whiteSpace=wrap;html=1;fillColor=#000099;" vertex="1" parent="1">
          <mxGeometry x="350" y="1000" width="30" height="30" as="geometry" />
        </mxCell>
        <mxCell id="9eb1sHR4hk60-oKOcMgC-201" value="" style="rounded=1;whiteSpace=wrap;html=1;fillColor=#000099;" vertex="1" parent="1">
          <mxGeometry x="390" y="1000" width="30" height="30" as="geometry" />
        </mxCell>
        <mxCell id="9eb1sHR4hk60-oKOcMgC-202" value="" style="rounded=1;whiteSpace=wrap;html=1;fillColor=#000099;" vertex="1" parent="1">
          <mxGeometry x="430" y="960" width="30" height="30" as="geometry" />
        </mxCell>
        <mxCell id="9eb1sHR4hk60-oKOcMgC-203" value="" style="rounded=1;whiteSpace=wrap;html=1;fillColor=#000099;" vertex="1" parent="1">
          <mxGeometry x="470" y="960" width="30" height="30" as="geometry" />
        </mxCell>
        <mxCell id="9eb1sHR4hk60-oKOcMgC-204" value="" style="rounded=1;whiteSpace=wrap;html=1;fillColor=#000099;" vertex="1" parent="1">
          <mxGeometry x="510" y="960" width="30" height="30" as="geometry" />
        </mxCell>
        <mxCell id="9eb1sHR4hk60-oKOcMgC-205" value="" style="rounded=1;whiteSpace=wrap;html=1;fillColor=#000099;" vertex="1" parent="1">
          <mxGeometry x="430" y="1000" width="30" height="30" as="geometry" />
        </mxCell>
        <mxCell id="9eb1sHR4hk60-oKOcMgC-206" value="" style="rounded=1;whiteSpace=wrap;html=1;fillColor=#000099;" vertex="1" parent="1">
          <mxGeometry x="470" y="1000" width="30" height="30" as="geometry" />
        </mxCell>
        <mxCell id="9eb1sHR4hk60-oKOcMgC-207" value="" style="rounded=1;whiteSpace=wrap;html=1;fillColor=#000099;" vertex="1" parent="1">
          <mxGeometry x="510" y="1000" width="30" height="30" as="geometry" />
        </mxCell>
        <mxCell id="9eb1sHR4hk60-oKOcMgC-208" value="" style="rounded=1;whiteSpace=wrap;html=1;fillColor=#000099;" vertex="1" parent="1">
          <mxGeometry x="310" y="1040" width="30" height="30" as="geometry" />
        </mxCell>
        <mxCell id="9eb1sHR4hk60-oKOcMgC-209" value="" style="rounded=1;whiteSpace=wrap;html=1;fillColor=#000099;" vertex="1" parent="1">
          <mxGeometry x="350" y="1040" width="30" height="30" as="geometry" />
        </mxCell>
        <mxCell id="9eb1sHR4hk60-oKOcMgC-210" value="" style="rounded=1;whiteSpace=wrap;html=1;fillColor=#000099;" vertex="1" parent="1">
          <mxGeometry x="390" y="1040" width="30" height="30" as="geometry" />
        </mxCell>
        <mxCell id="9eb1sHR4hk60-oKOcMgC-211" value="" style="rounded=1;whiteSpace=wrap;html=1;fillColor=#000099;" vertex="1" parent="1">
          <mxGeometry x="310" y="1080" width="30" height="30" as="geometry" />
        </mxCell>
        <mxCell id="9eb1sHR4hk60-oKOcMgC-212" value="" style="rounded=1;whiteSpace=wrap;html=1;fillColor=#000099;" vertex="1" parent="1">
          <mxGeometry x="350" y="1080" width="30" height="30" as="geometry" />
        </mxCell>
        <mxCell id="9eb1sHR4hk60-oKOcMgC-213" value="" style="rounded=1;whiteSpace=wrap;html=1;fillColor=#000099;" vertex="1" parent="1">
          <mxGeometry x="390" y="1080" width="30" height="30" as="geometry" />
        </mxCell>
        <mxCell id="9eb1sHR4hk60-oKOcMgC-214" value="" style="rounded=1;whiteSpace=wrap;html=1;fillColor=#000099;" vertex="1" parent="1">
          <mxGeometry x="430" y="1040" width="30" height="30" as="geometry" />
        </mxCell>
        <mxCell id="9eb1sHR4hk60-oKOcMgC-215" value="" style="rounded=1;whiteSpace=wrap;html=1;fillColor=#000099;" vertex="1" parent="1">
          <mxGeometry x="470" y="1040" width="30" height="30" as="geometry" />
        </mxCell>
        <mxCell id="9eb1sHR4hk60-oKOcMgC-216" value="" style="rounded=1;whiteSpace=wrap;html=1;fillColor=#000099;" vertex="1" parent="1">
          <mxGeometry x="510" y="1040" width="30" height="30" as="geometry" />
        </mxCell>
        <mxCell id="9eb1sHR4hk60-oKOcMgC-217" value="" style="rounded=1;whiteSpace=wrap;html=1;fillColor=#000099;" vertex="1" parent="1">
          <mxGeometry x="430" y="1080" width="30" height="30" as="geometry" />
        </mxCell>
        <mxCell id="9eb1sHR4hk60-oKOcMgC-218" value="" style="rounded=1;whiteSpace=wrap;html=1;fillColor=#000099;" vertex="1" parent="1">
          <mxGeometry x="470" y="1080" width="30" height="30" as="geometry" />
        </mxCell>
        <mxCell id="9eb1sHR4hk60-oKOcMgC-219" value="" style="rounded=1;whiteSpace=wrap;html=1;fillColor=#000099;" vertex="1" parent="1">
          <mxGeometry x="510" y="1080" width="30" height="30" as="geometry" />
        </mxCell>
        <mxCell id="9eb1sHR4hk60-oKOcMgC-220" value="" style="rounded=1;whiteSpace=wrap;html=1;fillColor=#000099;" vertex="1" parent="1">
          <mxGeometry x="150" y="1000" width="110" height="110" as="geometry" />
        </mxCell>
        <mxCell id="9eb1sHR4hk60-oKOcMgC-221" value="" style="rounded=1;whiteSpace=wrap;html=1;fillColor=#000099;" vertex="1" parent="1">
          <mxGeometry x="30" y="880" width="110" height="110" as="geometry" />
        </mxCell>
        <mxCell id="9eb1sHR4hk60-oKOcMgC-222" value="" style="rounded=1;whiteSpace=wrap;html=1;fillColor=#000099;" vertex="1" parent="1">
          <mxGeometry x="30" y="1000" width="110" height="110" as="geometry" />
        </mxCell>
      </root>
    </mxGraphModel>
  </diagram>
</mxfile>
